<?xml version="1.0" encoding="iso-8859-1"?>
<!-- Generator: Adobe Illustrator 17.1.0, SVG Export Plug-In . SVG Version: 6.00 Build 0)  -->
<!DOCTYPE svg PUBLIC "-//W3C//DTD SVG 1.1//EN" "http://www.w3.org/Graphics/SVG/1.1/DTD/svg11.dtd">
<svg version="1.1" id="Capa_1" xmlns="http://www.w3.org/2000/svg" xmlns:xlink="http://www.w3.org/1999/xlink" x="0px" y="0px"
	 viewBox="0 0 375.184 375.184" style="enable-background:new 0 0 375.184 375.184;" xml:space="preserve">
<path d="M285.344,97.751c0-53.9-43.852-97.751-97.752-97.751S89.84,43.851,89.84,97.751c0,46.506,32.648,85.527,76.227,95.358
	v160.549c0,11.869,9.656,21.525,21.525,21.525s21.525-9.656,21.525-21.525v-6.908h28.975c8.271,0,15-6.383,15-14.228
	c0-7.846-6.729-14.229-15-14.229h-0.58c-2.757,0-5-2.243-5-5v-7.96c0-2.757,2.243-5,5-5h0.58c8.271,0,15-6.383,15-14.229
	s-6.729-14.229-15-14.229h-28.975V193.11C252.696,183.278,285.344,144.258,285.344,97.751z M187.592,152.772
	c-30.387,0-55.021-24.634-55.021-55.021s24.634-55.021,55.021-55.021s55.021,24.634,55.021,55.021S217.979,152.772,187.592,152.772z
	"/>
<g>
</g>
<g>
</g>
<g>
</g>
<g>
</g>
<g>
</g>
<g>
</g>
<g>
</g>
<g>
</g>
<g>
</g>
<g>
</g>
<g>
</g>
<g>
</g>
<g>
</g>
<g>
</g>
<g>
</g>
</svg>
