<?xml version="1.0" encoding="utf-8"?>
<!-- Generator: Adobe Illustrator 21.1.0, SVG Export Plug-In . SVG Version: 6.00 Build 0)  -->
<svg version="1.0" id="Layer_1" xmlns="http://www.w3.org/2000/svg" xmlns:xlink="http://www.w3.org/1999/xlink" x="0px" y="0px"
	 viewBox="0 0 256 256" enable-background="new 0 0 256 256" xml:space="preserve">
<path fill="#4ECDC4" d="M235.4,86.3c0-3.3-1.1-5.9-3.4-7.8c-2.3-1.9-6.5-3.7-12.6-5.4c-6.1-1.7-10.6-3.6-13.4-5.6
	c-4-2.9-6-6.6-6-11.3c0-4.5,1.9-8.2,5.6-11c3.7-2.8,8.5-4.2,14.3-4.2c3.9,0,7.4,0.8,10.5,2.3s5.5,3.6,7.2,6.3s2.6,5.7,2.6,9h-5
	c0-4-1.4-7.3-4.1-9.7s-6.5-3.7-11.1-3.7c-4.5,0-8.1,1-10.8,3s-4,4.6-4,7.9c0,3,1.2,5.5,3.6,7.4c2.4,1.9,6.3,3.6,11.6,5
	s9.3,2.9,12,4.5s4.8,3.4,6.2,5.6s2.1,4.7,2.1,7.7c0,4.6-1.9,8.4-5.6,11.2c-3.7,2.8-8.6,4.2-14.7,4.2c-4.2,0-8-0.7-11.5-2.2
	s-6.1-3.6-7.9-6.2c-1.8-2.7-2.7-5.7-2.7-9.2h5c0,4.2,1.6,7.4,4.7,9.9c3.1,2.4,7.2,3.6,12.4,3.6c4.6,0,8.3-1,11.1-3
	C234,92.3,235.4,89.6,235.4,86.3z"/>
<path fill="#4ECDC4" d="M85.8,140.8c-5.3,0-9.6,2-12.8,5.9c-3.2,3.9-4.8,9.4-4.8,16.5v6c0,6.8,1.6,12.2,4.7,16.2c3.2,4,7.5,6,12.9,6
	c5.5,0,9.8-2,12.9-5.9s4.6-9.4,4.6-16.4V163c0-6.9-1.6-12.3-4.7-16.3C95.6,142.8,91.3,140.8,85.8,140.8z"/>
<path fill="#4ECDC4" d="M19,114L0.5,132.8v82.3h235.9l19.1-19.3V114H19z M59,194.9H25.7v-57.5h4.9v53.4H59V194.9z M108.3,169.2
	c0,5.3-0.9,9.9-2.7,13.9c-1.8,4-4.4,7.1-7.8,9.2c-3.4,2.2-7.3,3.2-11.8,3.2c-6.7,0-12.1-2.4-16.3-7.2c-4.1-4.8-6.2-11.3-6.2-19.5
	v-5.9c0-5.2,0.9-9.9,2.8-13.9s4.5-7.1,7.9-9.3s7.3-3.3,11.7-3.3c4.4,0,8.3,1.1,11.7,3.2c3.4,2.1,6,5.1,7.8,9s2.8,8.4,2.9,13.5
	C108.3,162.1,108.3,169.2,108.3,169.2z M162,188c-1.7,2.4-4.3,4.3-7.9,5.6c-3.6,1.3-7.6,2-12.1,2s-8.5-1.1-12-3.2
	c-3.5-2.2-6.2-5.2-8.1-9.2c-1.9-3.9-2.9-8.5-2.9-13.6v-7.3c0-8,2-14.3,6-18.9c4-4.6,9.4-6.9,16.2-6.9c5.9,0,10.7,1.5,14.3,4.5
	s5.8,7.2,6.4,12.5H157c-0.7-4.2-2.4-7.4-5.2-9.6c-2.7-2.2-6.3-3.3-10.7-3.3c-5.4,0-9.6,1.9-12.8,5.7c-3.1,3.8-4.7,9.2-4.7,16.2v6.8
	c0,4.4,0.7,8.2,2.2,11.6c1.5,3.4,3.6,6,6.4,7.8c2.8,1.8,6,2.8,9.6,2.8c4.2,0,7.8-0.7,10.8-2c1.9-0.9,3.4-1.9,4.3-3v-14.8h-15.4v-4.1
	H162V188z M181.7,194.9h-4.9v-57.5h4.9V194.9z M204.7,185.6c3,4,7.1,5.9,12.2,5.9c5.1,0,8.9-1.2,11.5-3.7c2.6-2.4,4.2-6.1,4.8-11
	h4.9c-0.7,6.1-2.8,10.7-6.5,13.9s-8.6,4.8-14.7,4.8c-4.3,0-8-1.1-11.3-3.2c-3.3-2.1-5.8-5.2-7.6-9.1c-1.8-3.9-2.7-8.4-2.7-13.4v-7.5
	c0-5.1,0.9-9.6,2.7-13.6c1.8-3.9,4.4-7,7.7-9.1c3.4-2.1,7.2-3.2,11.6-3.2c6.2,0,11,1.7,14.6,5s5.6,7.9,6.2,13.8h-4.9
	c-1.2-9.8-6.5-14.7-15.9-14.7c-5.2,0-9.4,1.9-12.5,5.8c-3.1,3.9-4.6,9.3-4.6,16.2v7C200.1,176.4,201.6,181.7,204.7,185.6z"/>
<g>
	<path fill="#4ECDC4" d="M152.7,41H150v60.6h2.7c17.6,0,32-13.6,32-30.3S170.4,41,152.7,41z M154.5,97V45.5
		c14.3,0.9,25.7,12,25.7,25.7S168.8,96.1,154.5,97z"/>
</g>
<path fill="#4ECDC4" d="M23.7,101.6h-4.3V41h4.3V101.6z"/>
<path fill="#4ECDC4" d="M57.3,101.6c-5.6-1-9.7-2.7-12.5-4.9c-2.8-2.3-4.2-5.3-4.2-9.1v-6.7c0-5.3-7.2-8-14.8-8v-3.2
	c7.6,0,14.8-2.6,14.8-7.9v-6.9c0-3.7,1.4-6.7,4.2-9s7-3.9,12.5-5l1.3,2.4c-8.1,1.6-12.1,5.5-12.1,11.9v6.5c0,5-3,8.2-9.1,9.7
	c6.1,1.6,9.1,4.8,9.1,9.6v6.9c0.1,5.9,4.2,9.7,12.2,11.3L57.3,101.6z"/>
</svg>
